<svg xmlns="http://www.w3.org/2000/svg" xmlns:xlink="http://www.w3.org/1999/xlink" xml:space="preserve" version="1.1" style="shape-rendering:geometricPrecision;text-rendering:geometricPrecision;image-rendering:optimizeQuality;" viewBox="0 0 2.751 3.4387499999999998" x="0px" y="0px" fill-rule="evenodd" clip-rule="evenodd"><defs><style type="text/css">
   
    .fil0 {fill:black;fill-rule:nonzero}
   
  </style></defs><g><path class="fil0" d="M0.55 0.413l0 -0.321c0,-0.051 0.041,-0.092 0.092,-0.092 0.051,0 0.092,0.041 0.092,0.092l0 0.321 0.183 0 0 -0.321c0,-0.051 0.041,-0.092 0.092,-0.092 0.05,0 0.091,0.041 0.091,0.092l0 0.321 0.184 0 0 -0.321c0,-0.051 0.041,-0.092 0.091,-0.092 0.051,0 0.092,0.041 0.092,0.092l0 0.321 0.184 0 0 -0.321c0,-0.051 0.041,-0.092 0.091,-0.092 0.051,0 0.092,0.041 0.092,0.092l0 0.321 0.183 0 0 -0.321c0,-0.051 0.041,-0.092 0.092,-0.092 0.051,0 0.092,0.041 0.092,0.092l0 0.321 0.091 0c0.026,0 0.046,0.02 0.046,0.045l0 0.092 0.321 0c0.051,0 0.092,0.041 0.092,0.092 0,0.051 -0.041,0.092 -0.092,0.092l-0.321 0 0 0.183 0.321 0c0.051,0 0.092,0.041 0.092,0.092 0,0.05 -0.041,0.091 -0.092,0.091l-0.321 0 0 0.184 0.321 0c0.051,0 0.092,0.041 0.092,0.091 0,0.051 -0.041,0.092 -0.092,0.092l-0.321 0 0 0.184 0.321 0c0.051,0 0.092,0.041 0.092,0.091 0,0.051 -0.041,0.092 -0.092,0.092l-0.321 0 0 0.183 0.321 0c0.051,0 0.092,0.041 0.092,0.092 0,0.051 -0.041,0.092 -0.092,0.092l-0.321 0 0 0.091c0,0.026 -0.02,0.046 -0.046,0.046l-0.091 0 0 0.321c0,0.051 -0.041,0.092 -0.092,0.092 -0.051,0 -0.092,-0.041 -0.092,-0.092l0 -0.321 -0.183 0 0 0.321c0,0.051 -0.041,0.092 -0.092,0.092 -0.05,0 -0.091,-0.041 -0.091,-0.092l0 -0.321 -0.184 0 0 0.321c0,0.051 -0.041,0.092 -0.092,0.092 -0.05,0 -0.091,-0.041 -0.091,-0.092l0 -0.321 -0.184 0 0 0.321c0,0.051 -0.041,0.092 -0.091,0.092 -0.051,0 -0.092,-0.041 -0.092,-0.092l0 -0.321 -0.183 0 0 0.321c0,0.051 -0.041,0.092 -0.092,0.092 -0.051,0 -0.092,-0.041 -0.092,-0.092l0 -0.321 -0.091 0c-0.026,0 -0.046,-0.02 -0.046,-0.046l0 -0.091 -0.321 0c-0.051,0 -0.092,-0.041 -0.092,-0.092 0,-0.051 0.041,-0.092 0.092,-0.092l0.321 0 0 -0.183 -0.321 0c-0.051,0 -0.092,-0.041 -0.092,-0.092 0,-0.05 0.041,-0.091 0.092,-0.091l0.321 0 0 -0.184 -0.321 0c-0.051,0 -0.092,-0.041 -0.092,-0.092 0,-0.05 0.041,-0.091 0.092,-0.091l0.321 0 0 -0.184 -0.321 0c-0.051,0 -0.092,-0.041 -0.092,-0.091 0,-0.051 0.041,-0.092 0.092,-0.092l0.321 0 0 -0.183 -0.321 0c-0.051,0 -0.092,-0.041 -0.092,-0.092 0,-0.051 0.041,-0.092 0.092,-0.092l0.321 0 0 -0.092c0,-0.025 0.02,-0.045 0.046,-0.045l0.091 0zm1.238 0.55l-0.825 0 0 0.825 0.825 0 0 -0.825z"/></g><text x="0" y="17.751" fill="#000000" font-size="5px" font-weight="bold" font-family="'Helvetica Neue', Helvetica, Arial-Unicode, Arial, Sans-serif">Created by Deemak Daksina</text><text x="0" y="22.751" fill="#000000" font-size="5px" font-weight="bold" font-family="'Helvetica Neue', Helvetica, Arial-Unicode, Arial, Sans-serif">from the Noun Project</text></svg>