<?xml version="1.0" encoding="utf-8"?>
<svg version="1.1" x="0px" y="0px" viewBox="0 0 100 125" style="enable-background:new 0 0 100 100;" xmlns="http://www.w3.org/2000/svg">
  <path d="M93,42H80v-6.1c3.4-0.5,6-3.4,6-6.9c0-2-0.8-3.7-2.1-5c1.3-1.3,2.1-3,2.1-5c0-3.9-3.1-7-7-7H67c-3.9,0-7,3.1-7,7  c0,2,0.8,3.7,2.1,5c-1.3,1.3-2.1,3-2.1,5c0,3.5,2.6,6.4,6,6.9V42H55v-4c0-1.1-0.9-2-2-2h-8V19c0-7.7-6.3-14-14-14H19  C11.3,5,5,11.3,5,19v62c0,7.7,6.3,14,14,14h12c7.7,0,14-6.3,14-14V62h8c1.1,0,2-0.9,2-2v-4h38c1.1,0,2-0.9,2-2V44  C95,42.9,94.1,42,93,42z M64,19c0-1.7,1.3-3,3-3h12c1.7,0,3,1.3,3,3s-1.3,3-3,3H67C65.3,22,64,20.7,64,19z M64,29c0-1.7,1.3-3,3-3  h12c1.7,0,3,1.3,3,3s-1.3,3-3,3h-1H68h-1C65.3,32,64,30.7,64,29z M70,36h6v6h-6V36z M17,25.4v9.8l-8-2.7v-9.8L17,25.4z M17,49.2  l-8-2.7v-9.8l8,2.7V49.2z M9,50.8l8,2.7v9.8l-8-2.7V50.8z M9,64.8l8,2.7v9.8l-8-2.7V64.8z M21,9h8v82h-8V9z M41,38v8.6l-8,2.7v-9.8  l8-2.7V38z M33,53.4l8-2.7V60v0.6l-8,2.7V53.4z M41,32.6l-8,2.7v-9.8l8-2.7V32.6z M33,67.4l8-2.7v9.8l-8,2.7V67.4z M41,18.6l-8,2.7  v-12C37.4,10.1,40.8,13.9,41,18.6z M17,9.2v12l-8-2.7C9.2,13.9,12.6,10.1,17,9.2z M9,81v-2.2l8,2.7v9.4C12.4,89.9,9,85.8,9,81z   M33,90.8v-9.4l8-2.7V81C41,85.8,37.6,89.9,33,90.8z M51,58h-6V40h6v4v10V58z M91,52H55v-6h13h10h13V52z"/>
</svg>