<?xml version="1.0" encoding="utf-8"?>
<svg version="1.1" x="0px" y="0px" viewBox="0 0 100 125" style="enable-background:new 0 0 100 100;" xmlns="http://www.w3.org/2000/svg">
  <style type="text/css">
	.st0{fill:#010202;}
</style>
  <path class="st0" d="M66.8,39.4c-0.2-0.4-0.6-0.7-1.1-0.7H51.3c-0.7,0-1.3,0.6-1.3,1.3v10c0,0.7,0.6,1.3,1.3,1.3h19.4  c0.4,0,0.8-0.2,1.1-0.6s0.2-0.8,0.1-1.2L66.8,39.4z M52.5,48.8v-7.5h12.4l3.8,7.5H52.5z"/>
  <path class="st0" d="M46.3,38.8H31.8c-0.5,0-0.9,0.3-1.1,0.7l-5,10c-0.2,0.4-0.2,0.8,0.1,1.2s0.6,0.6,1.1,0.6h19.4  c0.7,0,1.3-0.6,1.3-1.3V40C47.5,39.3,46.9,38.8,46.3,38.8z M45,48.8H28.9l3.8-7.5H45V48.8z"/>
  <path class="st0" d="M92.5,46.3H78.6l-6.8-13.6c-0.4-0.8-1.3-1.4-2.2-1.4H28c-0.9,0-1.8,0.5-2.2,1.4l-6.8,13.6H7.5  c-1.4,0-2.5,1.1-2.5,2.5v17.5c0,1.4,1.1,2.5,2.5,2.5h15.1c1.1,0,2-0.7,2.4-1.7l0.3-0.8c0.5-1.5,1.9-2.5,3.5-2.5s3,1,3.5,2.5l0.3,0.8  c0.4,1,1.3,1.7,2.4,1.7h32.6c1.1,0,2-0.7,2.4-1.7l0.3-0.8c0.5-1.5,1.9-2.5,3.5-2.5s3,1,3.5,2.5l0.3,0.8c0.4,1,1.3,1.7,2.4,1.7h12.6  c1.4,0,2.5-1.1,2.5-2.5V48.8C95,47.4,93.9,46.3,92.5,46.3z M90,63.8h-8.4c-1.4-3-4.5-5-7.9-5c-3.4,0-6.5,2-7.9,5H36.6  c-1.4-3-4.5-5-7.9-5c-3.4,0-6.5,2-7.9,5H10V51.3h10.5c0.9,0,1.8-0.5,2.2-1.4l6.8-13.6H68l6.8,13.6c0.4,0.8,1.3,1.4,2.2,1.4h13V63.8z  "/>
</svg>